<?xml version="1.0" encoding="utf-8"?>
<!-- Generator: Adobe Illustrator 22.1.0, SVG Export Plug-In . SVG Version: 6.00 Build 0)  -->
<svg version="1.1" id="レイヤー_1" xmlns="http://www.w3.org/2000/svg" xmlns:xlink="http://www.w3.org/1999/xlink" x="0px"
	 y="0px" viewBox="0 0 841.9 595.3" style="enable-background:new 0 0 841.9 595.3;" xml:space="preserve">
<style type="text/css">
	.st0{fill:#D6D4D4;}
</style>
<g>
	<g>
		<path class="st0" d="M125.3,194.1c-1.2-6.1-4.1-10.4-8.7-12.8c-2.6-1.3-5.4-2-8.6-2c-6,0-11,2.7-14.9,8.1
			c-3.9,5.4-5.8,13.6-5.8,24.4c0,11,2.1,18.7,6.3,23.3c4.2,4.6,9,6.8,14.3,6.8s9.6-1.8,12.9-5.4c3.4-3.6,5.4-8.3,6.2-14.1h-17.3
			v-14.9H141v47.9h-10.4l-1.6-11.1c-3,4.2-5.7,7.2-8.1,8.9c-4.1,3-9.2,4.5-15.3,4.5c-9.9,0-18.1-4.1-24.4-12.3
			c-6.6-8.2-9.9-19.5-9.9-33.8c0-14.4,3.3-26,10-34.7s15.5-13.1,26.5-13.1c9.5,0,17.2,2.9,23,8.6c5.8,5.8,9.1,12.9,9.9,21.5h-15.4
			V194.1z"/>
		<path class="st0" d="M204,168.5c2.8,1.4,5.1,3.5,7,6.2c1.6,2.3,2.8,4.8,3.8,7.5c0.9,2.7,1.4,5.9,1.4,9.4c0,4.2-0.9,8.4-2.7,12.5
			s-4.8,7-8.9,8.7c3.5,1.7,5.9,4,7.3,7.1c1.4,3,2.2,7.7,2.2,14v6c0,4.1,0.1,6.8,0.4,8.3c0.4,2.3,1.4,4,2.9,5.1v2.2h-17.3
			c-0.5-2-0.8-3.6-1-4.8c-0.4-2.5-0.6-5.1-0.7-7.7l-0.1-8.3c-0.1-5.7-0.9-9.5-2.5-11.4s-4.6-2.8-8.9-2.8h-15.3v35h-15.3v-89.3h35.8
			C197.3,166.3,201.2,167.1,204,168.5z M171.6,181.7v24h16.9c3.3,0,5.9-0.5,7.5-1.5c3-1.7,4.4-5,4.4-10.1c0-5.4-1.4-9-4.3-10.9
			c-1.6-1-4-1.6-7.2-1.6h-17.3V181.7z"/>
		<path class="st0" d="M252.6,166.2h17.7l26.5,89.3h-17l-4.9-18.3h-27.6l-5.1,18.3h-16.4L252.6,166.2z M251.5,221.7h19.2l-9.5-35.1
			L251.5,221.7z"/>
		<path class="st0" d="M350.3,168.1c5.3,2.1,9.5,5.8,12.8,11.3c2.6,4.4,4.4,9.2,5.3,14.4c1,5.2,1.4,10.1,1.4,14.8
			c0,11.9-2,21.9-6,30.2c-5.4,11.1-13.8,16.7-25.1,16.7h-32.3v-89.3h32.3C343.3,166.3,347.2,166.9,350.3,168.1z M321.5,181.7V240
			H336c7.4,0,12.6-4.3,15.5-13c1.6-4.8,2.4-10.4,2.4-17c0-9.1-1.2-16.1-3.6-20.9c-2.4-4.9-7.2-7.3-14.3-7.3h-14.5V181.7z"/>
		<path class="st0" d="M381.5,166.2h15.9V221c0,6.1,0.6,10.6,1.8,13.4c1.9,5,6,7.5,12.4,7.5c6.3,0,10.4-2.5,12.3-7.5
			c1.2-2.8,1.8-7.3,1.8-13.4v-54.8h15.9v54.9c0,9.5-1.2,16.9-3.7,22.2c-4.6,9.7-13.4,14.5-26.3,14.5c-13,0-21.8-4.8-26.4-14.5
			c-2.5-5.3-3.7-12.7-3.7-22.2L381.5,166.2L381.5,166.2z"/>
		<path class="st0" d="M478.2,166.2h17.7l26.5,89.3h-17l-4.9-18.3h-27.6l-5.1,18.3h-16.4L478.2,166.2z M477.1,221.7h19.2l-9.5-35.1
			L477.1,221.7z"/>
		<path class="st0" d="M586.4,166.2V182H564v73.5h-15.8V182h-22.5v-15.8H586.4z"/>
		<path class="st0" d="M609.8,255.5h-15.6v-89.3h15.6V255.5z"/>
		<path class="st0" d="M682.2,247.5c-5.7,6.9-13.8,10.4-24.6,10.4c-10.7,0-18.9-3.5-24.6-10.4c-7.6-8.5-11.4-20.8-11.4-36.8
			c0-16.4,3.8-28.6,11.4-36.8c5.7-6.9,13.8-10.4,24.6-10.4c10.7,0,18.9,3.5,24.6,10.4c7.6,8.2,11.3,20.5,11.3,36.8
			C693.5,226.7,689.8,239,682.2,247.5z M672.4,234c3.6-5.4,5.5-13.2,5.5-23.3c0-10-1.8-17.8-5.5-23.2c-3.6-5.5-8.6-8.2-14.8-8.2
			s-11.2,2.7-14.8,8.2c-3.7,5.4-5.5,13.2-5.5,23.3s1.8,17.8,5.5,23.3c3.7,5.4,8.6,8.2,14.8,8.2C663.9,242.1,668.8,239.4,672.4,234z"
			/>
		<path class="st0" d="M705.2,166.2h16.4l29.8,62.2v-62.2H766v89.3h-15.7l-30.5-63.3v63.3h-14.6V166.2z"/>
	</g>
	<g>
		<path class="st0" d="M145.1,298H98.4v22.3h42.8v18.2H98.4v27h48.8v18.9H80.5v-105h64.6V298z"/>
		<path class="st0" d="M175.6,384.4h-21.4l28.3-53.5l-27-51.5h22l15.7,34.2l16.1-34.2h21.3l-27,50.6l28.6,54.3h-22.4l-16.7-35.8
			L175.6,384.4z"/>
		<path class="st0" d="M243.1,384.4v-105h18.3v40h34.3v-40H314v104.9h-18.3v-46.8h-34.3v46.8h-18.3V384.4z"/>
		<path class="st0" d="M348.4,384.4h-18.3v-105h18.3V384.4z"/>
		<path class="st0" d="M431.4,290.6c2.7,4.5,4,9.8,4,16c0,6.4-1.4,11.6-4.1,15.4c-1.5,2.2-3.8,4.2-6.7,6c4.5,1.9,7.9,5,10.2,9.3
			c2.3,4.2,3.4,9.4,3.4,15.4c0,6.2-1.3,11.8-3.9,16.7c-1.7,3.3-3.7,6-6.2,8.3c-2.8,2.6-6.1,4.3-10,5.3c-3.8,1-8,1.4-12.5,1.4h-39.7
			v-105h42.6C419.3,279.6,426.9,283.4,431.4,290.6z M383.5,297.7v23.1h21.4c3.8,0,6.9-0.9,9.3-2.6s3.6-4.8,3.6-9.2
			c0-4.9-1.6-8.1-4.7-9.7c-2.7-1.1-6.2-1.6-10.4-1.6L383.5,297.7L383.5,297.7z M383.5,338.2v28h21.4c3.8,0,6.8-0.6,8.9-1.9
			c3.9-2.3,5.8-6.6,5.8-13.1c0-5.5-1.9-9.2-5.6-11.2c-2.1-1.1-5-1.7-8.8-1.8H383.5z"/>
		<path class="st0" d="M470.9,384.4h-18.3v-105h18.3V384.4z"/>
		<path class="st0" d="M552.1,279.4V298h-26.4v86.4h-18.5V298h-26.5v-18.6H552.1z"/>
		<path class="st0" d="M579.6,384.4h-18.3v-105h18.3V384.4z"/>
		<path class="st0" d="M664.7,375c-6.7,8.2-16.3,12.2-28.9,12.2c-12.6,0-22.2-4.1-28.9-12.2c-8.9-10-13.4-24.4-13.4-43.3
			c0-19.2,4.5-33.6,13.4-43.3c6.7-8.2,16.3-12.2,28.9-12.2c12.6,0,22.2,4.1,28.9,12.2c8.9,9.6,13.3,24.1,13.3,43.3
			C678,350.6,673.6,365,664.7,375z M653.2,359.1c4.3-6.4,6.4-15.5,6.4-27.3s-2.1-20.9-6.4-27.3c-4.3-6.4-10.1-9.6-17.4-9.6
			c-7.3,0-13.1,3.2-17.5,9.6c-4.3,6.4-6.5,15.5-6.5,27.3s2.2,20.9,6.5,27.3s10.2,9.6,17.5,9.6S648.9,365.5,653.2,359.1z"/>
		<path class="st0" d="M691.8,279.4h19.3l35,73.2v-73.2h17.2v104.9h-18.4L709,309.8v74.5h-17.2L691.8,279.4L691.8,279.4z"/>
	</g>
	<g>
		<g>
			<path class="st0" d="M82.8,409.2h3.9v9.3l7.4-9.3h5.1l-7.8,9.3l8.2,13.4h-5.1l-5.9-9.9l-1.9,2.3v7.6h-3.9
				C82.8,431.9,82.8,409.2,82.8,409.2z"/>
			<path class="st0" d="M101.8,409.2h4v13.9c0,1.6,0.2,2.7,0.5,3.4c0.5,1.3,1.5,1.9,3.1,1.9s2.6-0.6,3.1-1.9
				c0.3-0.7,0.5-1.9,0.5-3.4v-13.9h4v13.9c0,2.4-0.3,4.3-0.9,5.6c-1.2,2.5-3.4,3.7-6.7,3.7c-3.3,0-5.5-1.2-6.7-3.7
				c-0.6-1.3-0.9-3.2-0.9-5.6V409.2z"/>
			<path class="st0" d="M133.1,409.8c0.7,0.4,1.3,0.9,1.8,1.6c0.4,0.6,0.7,1.2,1,1.9s0.4,1.5,0.4,2.4c0,1.1-0.2,2.1-0.7,3.2
				c-0.5,1-1.2,1.8-2.3,2.2c0.9,0.4,1.5,1,1.9,1.8s0.5,2,0.5,3.5v1.5c0,1,0,1.7,0.1,2.1c0.1,0.6,0.3,1,0.7,1.3v0.6h-4.4
				c-0.1-0.5-0.2-0.9-0.3-1.2c-0.1-0.6-0.2-1.3-0.2-2v-2.1c0-1.4-0.2-2.4-0.6-2.9c-0.4-0.5-1.2-0.7-2.3-0.7h-3.9v8.9H121v-22.7h9.1
				C131.4,409.2,132.4,409.4,133.1,409.8z M124.9,413.1v6.1h4.3c0.9,0,1.5-0.1,1.9-0.4c0.8-0.4,1.1-1.3,1.1-2.6
				c0-1.4-0.4-2.3-1.1-2.8c-0.4-0.3-1-0.4-1.8-0.4L124.9,413.1L124.9,413.1z"/>
			<path class="st0" d="M145.5,409.2h4.5l6.7,22.7h-4.3l-1.3-4.7h-7l-1.3,4.7h-4.2L145.5,409.2z M145.2,423.3h4.9l-2.4-8.9
				L145.2,423.3z"/>
			<path class="st0" d="M162,424.8c0.1,1,0.4,1.8,0.7,2.3c0.7,0.9,1.8,1.4,3.4,1.4c1,0,1.7-0.1,2.3-0.4c1.1-0.5,1.7-1.3,1.7-2.6
				c0-0.7-0.3-1.3-0.8-1.7c-0.6-0.4-1.4-0.8-2.6-1.1l-2.1-0.5c-2-0.5-3.4-1.1-4.2-1.7c-1.3-1-1.9-2.7-1.9-4.9c0-2,0.6-3.7,1.9-5.1
				c1.3-1.3,3.1-2,5.5-2c2,0,3.8,0.6,5.2,1.9s2.2,3.1,2.3,5.5h-3.8c-0.1-1.4-0.6-2.3-1.5-2.9c-0.6-0.4-1.4-0.6-2.4-0.6
				c-1.1,0-1.9,0.2-2.5,0.7s-0.9,1.2-0.9,2.1c0,0.8,0.3,1.4,0.9,1.8c0.4,0.3,1.2,0.6,2.5,0.9l3.3,0.9c1.5,0.4,2.6,1,3.3,1.6
				c1.1,1.1,1.7,2.6,1.7,4.6c0,2.1-0.7,3.8-2,5.2c-1.3,1.4-3.2,2.1-5.7,2.1s-4.5-0.7-5.9-2s-2.2-3.2-2.2-5.6h3.8V424.8z"/>
			<path class="st0" d="M176.7,431.8v-22.7h4v8.6h7.4v-8.6h4v22.7h-4v-10.1h-7.4v10.1H176.7z"/>
			<path class="st0" d="M199.5,431.8h-4v-22.7h4V431.8z"/>
			<path class="st0" d="M203.3,409.2h3.9v9.3l7.4-9.3h5.1l-7.8,9.3l8.2,13.4H215l-5.9-9.9l-1.9,2.3v7.6h-3.9L203.3,409.2
				L203.3,409.2z"/>
			<path class="st0" d="M226,431.8h-4v-22.7h4V431.8z"/>
			<path class="st0" d="M237,409.2h4v13.9c0,1.6,0.2,2.7,0.5,3.4c0.5,1.3,1.5,1.9,3.1,1.9s2.6-0.6,3.1-1.9c0.3-0.7,0.5-1.9,0.5-3.4
				v-13.9h4v13.9c0,2.4-0.3,4.3-0.9,5.6c-1.2,2.5-3.4,3.7-6.7,3.7s-5.5-1.2-6.7-3.7c-0.6-1.3-0.9-3.2-0.9-5.6L237,409.2L237,409.2z"
				/>
			<path class="st0" d="M256.1,409.2h4.2l7.6,15.8v-15.8h3.7v22.7h-4l-7.8-16.1v16.1h-3.7L256.1,409.2L256.1,409.2z"/>
			<path class="st0" d="M278.9,431.8h-4v-22.7h4V431.8z"/>
			<path class="st0" d="M293.7,409.2h4.1l-6.5,22.7h-3.8l-6.4-22.7h4.2l4.1,17.2L293.7,409.2z"/>
			<path class="st0" d="M314.3,413.2h-10.1v4.8h9.2v3.9h-9.2v5.8h10.5v4.1h-14.4v-22.7h14V413.2z"/>
			<path class="st0" d="M330.1,409.8c0.7,0.4,1.3,0.9,1.8,1.6c0.4,0.6,0.7,1.2,1,1.9c0.2,0.7,0.4,1.5,0.4,2.4c0,1.1-0.2,2.1-0.7,3.2
				c-0.5,1-1.2,1.8-2.3,2.2c0.9,0.4,1.5,1,1.9,1.8s0.5,2,0.5,3.5v1.5c0,1,0,1.7,0.1,2.1c0.1,0.6,0.3,1,0.7,1.3v0.6h-4.4
				c-0.1-0.5-0.2-0.9-0.3-1.2c-0.1-0.6-0.2-1.3-0.2-2v-2.1c0-1.4-0.2-2.4-0.6-2.9s-1.2-0.7-2.3-0.7h-3.9v8.9H318v-22.7h9.1
				C328.4,409.2,329.4,409.4,330.1,409.8z M321.9,413.1v6.1h4.3c0.9,0,1.5-0.1,1.9-0.4c0.8-0.4,1.1-1.3,1.1-2.6
				c0-1.4-0.4-2.3-1.1-2.8c-0.4-0.3-1-0.4-1.8-0.4L321.9,413.1L321.9,413.1z"/>
			<path class="st0" d="M339.9,424.8c0.1,1,0.4,1.8,0.7,2.3c0.7,0.9,1.8,1.4,3.4,1.4c1,0,1.7-0.1,2.3-0.4c1.1-0.5,1.7-1.3,1.7-2.6
				c0-0.7-0.3-1.3-0.8-1.7c-0.6-0.4-1.4-0.8-2.6-1.1l-2.1-0.5c-2-0.5-3.4-1.1-4.2-1.7c-1.3-1-1.9-2.7-1.9-4.9c0-2,0.6-3.7,1.9-5.1
				c1.3-1.3,3.1-2,5.5-2c2,0,3.8,0.6,5.2,1.9c1.4,1.3,2.2,3.1,2.3,5.5h-3.8c-0.1-1.4-0.6-2.3-1.5-2.9c-0.6-0.4-1.4-0.6-2.4-0.6
				c-1.1,0-1.9,0.2-2.5,0.7s-0.9,1.2-0.9,2.1c0,0.8,0.3,1.4,0.9,1.8c0.4,0.3,1.2,0.6,2.5,0.9l3.3,0.9c1.5,0.4,2.6,1,3.3,1.6
				c1.1,1.1,1.7,2.6,1.7,4.6c0,2.1-0.7,3.8-2,5.2c-1.3,1.4-3.2,2.1-5.7,2.1s-4.5-0.7-5.9-2s-2.2-3.2-2.2-5.6h3.8V424.8z"/>
			<path class="st0" d="M358.3,431.8h-4v-22.7h4V431.8z"/>
			<path class="st0" d="M375.8,409.2v4h-5.7v18.7h-4v-18.7h-5.7v-4H375.8z"/>
			<path class="st0" d="M389,409.2h4.5l-6.4,14.2v8.5h-4v-8.5l-6.6-14.2h4.7l4,9.9L389,409.2z"/>
			<path class="st0" d="M417.8,429.8c-1.4,1.8-3.5,2.6-6.2,2.6s-4.8-0.9-6.2-2.6c-1.9-2.2-2.9-5.3-2.9-9.4c0-4.2,1-7.3,2.9-9.4
				c1.4-1.8,3.5-2.6,6.2-2.6s4.8,0.9,6.2,2.6c1.9,2.1,2.9,5.2,2.9,9.4C420.7,424.5,419.7,427.7,417.8,429.8z M415.3,426.4
				c0.9-1.4,1.4-3.4,1.4-5.9s-0.5-4.5-1.4-5.9s-2.2-2.1-3.8-2.1s-2.8,0.7-3.8,2.1c-0.9,1.4-1.4,3.4-1.4,5.9s0.5,4.5,1.4,5.9
				s2.2,2.1,3.8,2.1S414.4,427.8,415.3,426.4z"/>
			<path class="st0" d="M423.7,409.2h13.6v4h-9.6v5.2h8.4v3.9h-8.4v9.5h-4V409.2z"/>
			<path class="st0" d="M450.1,424.8c0.1,1,0.4,1.8,0.7,2.3c0.7,0.9,1.8,1.4,3.4,1.4c1,0,1.7-0.1,2.3-0.4c1.1-0.5,1.7-1.3,1.7-2.6
				c0-0.7-0.3-1.3-0.8-1.7c-0.6-0.4-1.4-0.8-2.6-1.1l-2.1-0.5c-2-0.5-3.4-1.1-4.2-1.7c-1.3-1-1.9-2.7-1.9-4.9c0-2,0.6-3.7,1.9-5.1
				c1.3-1.3,3.1-2,5.5-2c2,0,3.8,0.6,5.2,1.9c1.4,1.3,2.2,3.1,2.3,5.5h-3.8c-0.1-1.4-0.6-2.3-1.5-2.9c-0.6-0.4-1.4-0.6-2.4-0.6
				c-1.1,0-1.9,0.2-2.5,0.7s-0.9,1.2-0.9,2.1c0,0.8,0.3,1.4,0.9,1.8c0.4,0.3,1.2,0.6,2.5,0.9l3.3,0.9c1.5,0.4,2.6,1,3.3,1.6
				c1.1,1.1,1.7,2.6,1.7,4.6c0,2.1-0.7,3.8-2,5.2s-3.2,2.1-5.7,2.1s-4.5-0.7-5.9-2s-2.2-3.2-2.2-5.6h3.8V424.8z"/>
			<path class="st0" d="M466.7,411.5c1.5-1.9,3.5-2.8,5.9-2.8c3.2,0,5.5,1.3,7,3.8c0.8,1.4,1.2,2.8,1.3,4.2h-4
				c-0.3-1.1-0.6-1.9-1-2.5c-0.7-1-1.8-1.5-3.2-1.5c-1.4,0-2.5,0.7-3.4,2.1c-0.8,1.4-1.2,3.4-1.2,5.9s0.4,4.4,1.3,5.7
				c0.9,1.3,2,1.9,3.3,1.9c1.4,0,2.4-0.5,3.1-1.6c0.4-0.6,0.7-1.5,1-2.6h4c-0.3,2.5-1.2,4.5-2.6,6s-3.2,2.3-5.4,2.3
				c-2.7,0-4.8-1-6.4-3.1s-2.3-5-2.3-8.6C464,416.7,464.9,413.7,466.7,411.5z"/>
			<path class="st0" d="M487.6,431.8h-4v-22.7h4V431.8z"/>
			<path class="st0" d="M505.4,413.2h-10.1v4.8h9.2v3.9h-9.2v5.8h10.5v4.1h-14.4v-22.7h14V413.2z"/>
			<path class="st0" d="M508.9,409.2h4.2l7.6,15.8v-15.8h3.7v22.7h-4l-7.8-16.1v16.1h-3.7L508.9,409.2L508.9,409.2z"/>
			<path class="st0" d="M529.9,411.5c1.5-1.9,3.5-2.8,5.9-2.8c3.2,0,5.5,1.3,7,3.8c0.8,1.4,1.2,2.8,1.3,4.2h-4
				c-0.3-1.1-0.6-1.9-1-2.5c-0.7-1-1.8-1.5-3.2-1.5s-2.5,0.7-3.4,2.1c-0.8,1.4-1.2,3.4-1.2,5.9s0.4,4.4,1.3,5.7
				c0.9,1.3,2,1.9,3.3,1.9c1.4,0,2.4-0.5,3.1-1.6c0.4-0.6,0.7-1.5,1-2.6h4c-0.3,2.5-1.2,4.5-2.6,6c-1.4,1.5-3.2,2.3-5.4,2.3
				c-2.7,0-4.8-1-6.4-3.1c-1.6-2.1-2.3-5-2.3-8.6C527.3,416.7,528.1,413.7,529.9,411.5z"/>
			<path class="st0" d="M561.3,413.2h-10.1v4.8h9.2v3.9h-9.2v5.8h10.5v4.1h-14.4v-22.7h14V413.2z"/>
			<path class="st0" d="M577.6,409.2h4.5l6.7,22.7h-4.3l-1.3-4.7h-7l-1.3,4.7h-4.2L577.6,409.2z M577.4,423.3h4.9l-2.4-8.9
				L577.4,423.3z"/>
			<path class="st0" d="M591.2,409.2h4.2L603,425v-15.8h3.7v22.7h-4l-7.8-16.1v16.1h-3.7V409.2z"/>
			<path class="st0" d="M621.5,409.7c1.3,0.5,2.4,1.5,3.2,2.9c0.7,1.1,1.1,2.3,1.4,3.7c0.2,1.3,0.4,2.6,0.4,3.8c0,3-0.5,5.6-1.5,7.7
				c-1.4,2.8-3.5,4.2-6.4,4.2h-8.2v-22.7h8.2C619.8,409.2,620.8,409.4,621.5,409.7z M614.3,413.1v14.8h3.7c1.9,0,3.2-1.1,3.9-3.3
				c0.4-1.2,0.6-2.7,0.6-4.3c0-2.3-0.3-4.1-0.9-5.3c-0.6-1.2-1.8-1.9-3.6-1.9L614.3,413.1L614.3,413.1z"/>
			<path class="st0" d="M650.7,409.2v4H645v18.7h-4v-18.7h-5.7v-4H650.7z"/>
			<path class="st0" d="M653,431.8v-22.7h4v8.6h7.4v-8.6h4v22.7h-4v-10.1H657v10.1H653z"/>
			<path class="st0" d="M686.2,413.2h-10.1v4.8h9.2v3.9h-9.2v5.8h10.5v4.1h-14.4v-22.7h14V413.2z"/>
			<path class="st0" d="M702.6,409.2h4.5l6.7,22.7h-4.3l-1.3-4.7h-7l-1.3,4.7h-4.2L702.6,409.2z M702.3,423.3h4.9l-2.4-8.9
				L702.3,423.3z"/>
			<path class="st0" d="M728.4,409.8c0.7,0.4,1.3,0.9,1.8,1.6c0.4,0.6,0.7,1.2,1,1.9s0.4,1.5,0.4,2.4c0,1.1-0.2,2.1-0.7,3.2
				c-0.5,1-1.2,1.8-2.3,2.2c0.9,0.4,1.5,1,1.9,1.8s0.5,2,0.5,3.5v1.5c0,1,0,1.7,0.1,2.1c0.1,0.6,0.4,1,0.7,1.3v0.6h-4.4
				c-0.1-0.5-0.2-0.9-0.3-1.2c-0.1-0.6-0.2-1.3-0.2-2v-2.1c0-1.4-0.2-2.4-0.6-2.9c-0.4-0.5-1.2-0.7-2.3-0.7h-3.9v8.9h-3.9v-22.7h9.1
				C726.7,409.2,727.7,409.4,728.4,409.8z M720.2,413.1v6.1h4.3c0.9,0,1.5-0.1,1.9-0.4c0.8-0.4,1.1-1.3,1.1-2.6
				c0-1.4-0.4-2.3-1.1-2.8c-0.4-0.3-1-0.4-1.8-0.4L720.2,413.1L720.2,413.1z"/>
			<path class="st0" d="M749.2,409.2v4h-5.7v18.7h-4v-18.7h-5.7v-4H749.2z"/>
			<path class="st0" d="M754.3,424.8c0.1,1,0.4,1.8,0.7,2.3c0.7,0.9,1.8,1.4,3.4,1.4c1,0,1.7-0.1,2.3-0.4c1.1-0.5,1.7-1.3,1.7-2.6
				c0-0.7-0.3-1.3-0.8-1.7c-0.6-0.4-1.4-0.8-2.6-1.1l-2.1-0.5c-2-0.5-3.4-1.1-4.2-1.7c-1.3-1-1.9-2.7-1.9-4.9c0-2,0.6-3.7,1.9-5.1
				c1.3-1.3,3.1-2,5.5-2c2,0,3.8,0.6,5.2,1.9s2.2,3.1,2.3,5.5h-3.8c-0.1-1.4-0.6-2.3-1.5-2.9c-0.6-0.4-1.4-0.6-2.4-0.6
				c-1.1,0-1.9,0.2-2.5,0.7s-0.9,1.2-0.9,2.1c0,0.8,0.3,1.4,0.9,1.8c0.4,0.3,1.2,0.6,2.5,0.9l3.3,0.9c1.5,0.4,2.6,1,3.3,1.6
				c1.1,1.1,1.7,2.6,1.7,4.6c0,2.1-0.7,3.8-2,5.2c-1.3,1.4-3.2,2.1-5.7,2.1s-4.5-0.7-5.9-2s-2.2-3.2-2.2-5.6h3.8V424.8z"/>
		</g>
	</g>
	<g>
		<path class="st0" d="M85.3,473.4c0-0.7,0-1.2-0.1-1.8c-0.7,3-1.8,5.2-3.5,7.2c-0.6-1.1-1.1-1.7-1.9-2.5c1.7-1.8,2.6-3.5,3.1-6.1
			c0.4-2,0.6-3.6,0.6-6.8c0-0.7,0-1.4-0.1-1.9c-1.1,0.6-1.3,0.7-2.3,1.2c-0.3-1.1-0.6-1.9-1.3-2.9c2.4-0.8,3.5-1.3,5.2-2.5
			c2-1.3,3.3-2.7,4.3-4.1h2.9c2.1,2.8,5.1,4.9,9.7,6.4c-0.5,0.8-0.8,1.4-1.2,2.9c-0.8-0.4-0.8-0.4-2.3-1.2c-0.1,0.7-0.1,1.1-0.1,2
			v4.5c0,1,0,1.6,0.1,2.3c-0.6-0.1-1.1-0.1-1.7-0.1H85.5c-0.1,0.5-0.1,0.7-0.2,1.1c0.4,0.1,0.9,0.1,1.6,0.1h10.2
			c0.8,0,1.3,0,1.9-0.1c-0.1,0.6-0.1,1.3-0.1,2v3.5c0,0.9,0,1.5,0.1,2.2h-2.7v-1h-8.6v1h-2.6c0.1-0.7,0.1-1.4,0.1-2.2L85.3,473.4
			L85.3,473.4z M87.2,459.2c-1,0.8-1.7,1.3-3.3,2.2c0.7,0.1,1.3,0.1,2.1,0.1h10.3c0.8,0,1.2,0,1.8-0.1c-1.5-0.9-2.2-1.3-3.5-2.2v1.4
			c-0.5-0.1-1-0.1-1.6-0.1h-4.2c-0.8,0-1.1,0-1.6,0.1C87.2,460.6,87.2,459.2,87.2,459.2z M85.9,466.9c0,0.5,0,0.7-0.1,1.2h10v-1.2
			H85.9z M95.8,464.9v-1.2H86v1.2H95.8z M87.8,475.8h8.5v-2h-8.5V475.8z M88.8,458.3h4.5c-1.1-0.9-1.7-1.5-2.7-2.6
			c-0.8,1.1-1.2,1.6-2.4,2.6H88.8z"/>
		<path class="st0" d="M127.5,460.3c-0.4-0.1-0.6-0.1-1.6-0.1c-0.1,4.7-0.9,8.1-2.4,11.5c1.1,1.9,2.5,3.3,4.3,4.6
			c-0.7,1-1,1.5-1.6,2.8c-1.8-1.5-3-2.9-4.1-4.8c-1.3,2-2.6,3.5-4.4,4.9c-0.5-1.1-0.9-1.8-1.6-2.5c1.8-1.2,3.4-2.8,4.6-5
			c-0.9-2.3-1.5-4.3-1.8-6c-0.4,0.9-0.5,1.1-1,1.9c-0.3-0.7-0.4-0.9-0.9-1.7c0,0.7,0,1.1,0.1,1.6c-0.6-0.1-1.1-0.1-2-0.1h-2.2v1.1
			h2.9c1.1,0,1.5,0,2.1-0.1v2.7c-0.7-0.1-1.1-0.1-2.1-0.1h-4.3c0,0.4,0,0.5-0.1,1h3.6c1,0,1.1,0,1.6-0.1c0,0.3-0.1,0.6-0.2,1.9
			c-0.1,1.4-0.3,2.8-0.6,3.6c-0.2,0.8-0.6,1.3-1.1,1.5c-0.4,0.2-0.9,0.2-1.8,0.2c-0.8,0-1.1,0-1.5-0.1c-0.1-1.1-0.2-1.5-0.6-2.5
			c1,0.2,1.4,0.2,1.9,0.2c0.6,0,0.9-0.1,1-0.5c0.2-0.5,0.3-1.3,0.4-2.2h-3.2c-0.4,1.4-1,2.3-1.8,3.3s-0.8,1-2.4,2.2
			c-0.4-1-0.8-1.6-1.5-2.4c1.1-0.6,1.9-1.3,2.7-2.3c0.7-0.9,1.1-2.2,1.2-3.8h-1.4c-1.1,0-1.5,0-2.2,0.1v-2.7
			c0.7,0.1,1.1,0.1,2.2,0.1h2.8v-1.1h-2.2c-0.8,0-1.4,0-2.1,0.1c0.1-0.7,0.1-1.3,0.1-2.2v-3.9c0-0.8,0-1.1-0.1-2.3
			c0.6,0.1,1.1,0.1,2.1,0.1h2.3v-1h-3c-1.1,0-1.5,0-2.2,0.1v-2.7c0.6,0.1,1.1,0.1,2.2,0.1h3c0-1.1,0-1.5-0.1-2.2h2.6
			c-0.1,0.6-0.1,1.1-0.1,2.2h2.4c-0.5-0.5-1.2-1.1-1.7-1.4l1.4-1.2c0.8,0.5,1.4,0.9,2,1.6l-1.1,1h0.3c0.8,0,1.3,0,1.9-0.1v2.7
			c-0.6-0.1-1-0.1-2.2-0.1h-3v1h2.3c1,0,1.4,0,2.1-0.1c-0.1,1.2-0.1,1.3-0.1,2.3v2.9c0.8-1.5,1.4-3.1,2-5.7c0.4-1.7,0.8-4.1,0.8-5
			v-0.1c0,0,0,0,0-0.1s0-0.1,0-0.1l2.7,0.5c-0.1,0.5-0.1,0.5-0.4,1.8c-0.1,0.8-0.2,1.2-0.4,2h3.5c1.1,0,1.7,0,2.2-0.2v2.9H127.5z
			 M108.4,460.9v1.2h2v-1.2H108.4z M108.4,464v1.2h2V464H108.4z M114.8,462.1v-1.2h-2.1v1.2H114.8z M114.8,465.2V464h-2.1v1.2H114.8
			z M121,460.2c-0.3,1-0.3,1.1-0.5,1.8c0.1,1.7,0.9,4.7,1.6,6.8c0.9-2.7,1.3-5,1.4-8.6L121,460.2L121,460.2z"/>
		<path class="st0" d="M136.7,455.4c0-0.6,0-1.1-0.1-1.6h2.8c-0.1,0.5-0.1,1.1-0.1,1.6v0.9h4.7v-0.9c0-0.6,0-1.1-0.1-1.6h2.8
			c-0.1,0.6-0.1,1-0.1,1.6v0.9h3.2c1.2,0,2-0.1,2.7-0.2v3.1c-0.7-0.1-1.5-0.1-2.7-0.1h-3.2v0.5c0,0.6,0,1,0.1,1.5H144
			c0-0.6,0.1-0.9,0.1-1.5v-0.4h-4.7v0.4c0,0.7,0,1.1,0.1,1.5h-2.7c0.1-0.5,0.1-0.9,0.1-1.5v-0.5H134c-1.3,0-2,0-2.7,0.1v-3.1
			c0.8,0.1,1.6,0.2,2.7,0.2h2.9v-0.9H136.7z M134,469.9c-1.1,0-2,0.1-2.7,0.2V467c0.8,0.1,1.6,0.2,2.8,0.2h15.6c1.2,0,2-0.1,2.7-0.2
			v3.1c-0.7-0.1-1.6-0.2-2.7-0.2h-8.8c-0.7,1.6-1.5,3.1-2.7,5c3.3-0.1,5.5-0.3,8.1-0.6c-0.8-1-1.2-1.5-2.4-2.7l2.1-1.4
			c2.6,2.7,3.8,4.1,5.9,7.2l-2.3,1.8c-0.8-1.3-1.1-1.7-1.6-2.5c-4.4,0.7-7.6,1-12.8,1.3c-1.3,0.1-2.2,0.2-2.8,0.3l-0.5-3.2
			c0.4,0,1,0.1,1.4,0.1c0.1,0,0.5,0,1.1,0c0.2,0,0.2,0,0.8,0c1.3-2.2,1.9-3.3,2.7-5.1H134V469.9z M149.9,465
			c-0.7-0.1-1.6-0.1-2.6-0.1h-11.1c-1.1,0-2,0.1-2.7,0.1v-3.1c0.7,0.1,1.5,0.2,2.7,0.2h11c1.2,0,2-0.1,2.6-0.2v3.1H149.9z"/>
		<path class="st0" d="M165.8,456.6c0-1.4,0-2.1-0.1-3h2.7c-0.1,0.9-0.1,1.6-0.1,3v2.3h1.1c1,0,1.5,0,2.2-0.1v2.2
			c0.4,0.1,0.6,0.1,1.2,0.1h3.6c0.9,0,1.4,0,1.9-0.1v3.1c-0.6-0.1-0.9-0.1-2-0.1v11.8c0,1.5-0.3,2.2-1.1,2.6
			c-0.4,0.2-1.3,0.3-2.4,0.3c-0.4,0-0.7,0-1.9-0.1c-0.1-1.2-0.2-2-0.5-2.9c1,0.2,1.9,0.2,2.8,0.2c0.6,0,0.8-0.1,0.8-0.6V464h-1.1
			c-0.7,0-1.1,0-1.5,0.1v-2.2c-0.4,0-0.7-0.1-1.3-0.1h-1.7v13.8c0,1.6,0,2.3,0.1,3.3h-2.7c0.1-1.1,0.1-1.8,0.1-3.3v-13.8h-2.1
			c-0.7,0-1,0-1.5,0.1c-0.6,1.2-1.2,2.2-1.6,2.8v11.1c0,1.5,0,2.3,0.1,3.1h-2.7c0.1-0.9,0.1-1.7,0.1-3.2v-5.1c0-1.1,0-1.1,0-3
			c-0.4,0.6-1,1.3-1.6,1.8c-0.3-1.5-0.5-2-0.9-3c1.3-1.1,2.5-2.5,3.5-4.4c0.6-1,1-1.9,1.2-2.5l1.7,1.2v-1.8c0.7,0.1,1.1,0.1,2.2,0.1
			h1.5V456.6z M162.5,454.8c-0.1,0.1-0.5,0.7-1.2,1.8c-1.1,1.6-2.3,2.9-4.1,4.4c-0.3-1-0.6-1.6-1.2-2.6c1.9-1.4,3.5-3.4,4.3-5.1
			L162.5,454.8z M164.9,463.8c-0.3,6.2-0.7,9.3-1.7,12.3c-0.7-0.5-1.1-0.8-2.2-1.4c0.6-1.6,0.9-2.9,1.2-4.6c0.2-1.7,0.4-4.3,0.5-6.6
			L164.9,463.8z M170.2,458.5c-0.7-1.6-0.9-2-1.9-3.5l1.8-1.2c0.8,1,1.2,1.7,1.7,2.8V455c0.5,0.1,1.1,0.1,1.8,0.1h2.2
			c0.8,0,1.4,0,1.8-0.1v3.1c-0.6-0.1-1.1-0.1-1.8-0.1h-2.2c-0.7,0-1.3,0-1.8,0.1v-0.7L170.2,458.5z M170.7,463.4
			c0.7,3.1,1.3,6.1,1.7,9.7l-2.2,0.9c-0.4-4.2-0.9-7.3-1.5-10L170.7,463.4z"/>
		<path class="st0" d="M185.6,458c-1,0.2-1.4,0.3-2.8,0.5c-0.2-1.1-0.4-1.6-0.9-2.7c3.8-0.5,6.7-1.3,8.1-2.3l1.5,2.5
			c-0.1,0-0.1,0-0.4,0.2c-0.6,0.3-1.8,0.7-3,1.1v3.4h1.3c0.8,0,1.3,0,1.8-0.1v3c-0.5-0.1-1.1-0.1-1.8-0.1h-1.1
			c0.7,1.6,1.7,2.9,3.3,4.3c-0.5,0.8-0.9,1.5-1.3,2.7c-1.2-1.5-1.6-2.3-2.2-3.8c0,0.7,0.1,1.9,0.1,3.6v5.4c0,1.6,0,2.3,0.1,3.4h-2.8
			c0.1-1,0.1-2,0.1-3.4v-4.5c0-0.6,0-1.4,0.1-3.5c-0.8,2.5-1.5,4.2-2.9,6.2c-0.5-1.4-0.7-1.8-1.4-2.9c1.1-1.3,1.8-2.6,2.7-4.5
			c0.5-1.1,0.9-2.3,1.1-3.1H184c-0.9,0-1.4,0-2.1,0.2v-3c0.7,0.1,1.2,0.2,2.1,0.2h1.5L185.6,458L185.6,458z M198.5,456.8
			c0-1.6,0-2.3-0.1-3.2h2.9c-0.1,0.9-0.1,1.7-0.1,3.2v11.9c1.3-0.4,1.5-0.4,2.2-0.7l0.2,3.2c-0.6,0.1-1.3,0.2-2.2,0.5l-0.2,0.1v4.1
			c0,1.5,0,2.4,0.1,3.3h-2.9c0.1-0.9,0.1-1.6,0.1-3.3v-3.4l-5.3,1.4c-0.9,0.2-1.7,0.5-2.3,0.7l-0.3-3.2h0.1c0.6,0,1.2-0.1,2.1-0.4
			l5.7-1.5V456.8z M192.7,462c2.1,1.7,3,2.6,4.5,4.3l-1.5,2.5c-1.9-2.3-2.7-3.2-4.5-4.5L192.7,462z M193.5,455.1
			c2.3,1.8,3.3,2.7,4.6,4.3l-1.6,2.5c-1.5-2-2.5-3-4.5-4.6L193.5,455.1z"/>
		<path class="st0" d="M210,471.4c-1.2,0-2.2,0.1-2.9,0.2v-3.1c0.8,0.1,1.8,0.2,2.9,0.2h6.4v-0.2c0-0.6,0-1.1-0.1-1.5h1
			c1-0.6,1.8-1.2,2.8-2.2h-6.5c-1,0-1.6,0-2.4,0.1v-2.8c0.7,0.1,1.4,0.1,2.4,0.1h7.8c0.9,0,1.4,0,1.8-0.1l1.3,1.7
			c-0.4,0.4-0.4,0.4-0.9,0.8c-1.7,1.7-2.9,2.7-4.7,4l0,0h6.2c1.2,0,2.2-0.1,2.9-0.2v3.1c-0.7-0.1-1.7-0.2-2.9-0.2h-6.2v4.8
			c0,1-0.1,1.4-0.3,1.7c-0.4,0.7-1.2,0.9-3.3,0.9c-0.3,0-1.1,0-2.3-0.1c-0.3-1.5-0.4-1.9-0.8-2.9c1.1,0.2,2.2,0.3,2.9,0.3
			c1,0,1.2-0.1,1.2-0.6v-4.1H210V471.4z M211.2,457.7c-0.5-1.2-0.9-1.8-1.8-3.1l2.4-0.8c0.8,1.2,1.4,2.2,2.2,4h2.5
			c-0.4-1.3-0.8-2.3-1.4-3.5l2.5-0.8c1,2.1,1.1,2.5,1.6,4.3h2c0.7-1.1,1.5-2.8,1.9-4.1l2.6,0.8c-0.5,1.2-1.2,2.5-1.8,3.3h1.1
			c1.6,0,2.1,0,2.9-0.1c-0.1,0.7-0.1,1.2-0.1,2.3v2.6c0,0.7,0,1.4,0.1,2.1h-2.6v-4.3h-15.4v4.3h-2.6c0.1-0.6,0.1-1.3,0.1-2.1v-2.5
			c0-1,0-1.6-0.1-2.3c1.1,0.1,1.2,0.1,2.8,0.1h1.1V457.7z"/>
		<path class="st0" d="M244.2,463.1c0.6,2.5,1.8,5.2,3.4,7.2c1.8,2.3,3.7,3.9,6.5,5.2c-0.8,1.1-1.1,1.7-1.7,3.2
			c-2.5-1.5-4.2-2.9-5.8-5.1c-1.5-1.9-2.7-4.1-3.6-6.7c-0.7,2.8-2,5.2-3.9,7.4c-1.6,1.9-3.3,3.1-5.7,4.3c-0.4-1-0.9-1.9-1.7-2.9
			c1.7-0.8,2.7-1.4,3.8-2.3c3.2-2.6,4.8-5.7,5.3-10.4h-5.6c-1.5,0-2.2,0.1-3,0.2v-3.5c0.7,0.1,1.6,0.2,3,0.2h5.8
			c0-1.4,0.1-1.8,0.1-3.3c0-1.2-0.1-2-0.2-2.8h3.1c-0.1,1-0.1,1.4-0.2,3.2c0,1.1,0,1.8,0,2.8h6.3c1.3,0,2.2-0.1,3-0.2v3.5
			c-0.9-0.1-1.7-0.2-3-0.2h-5.9V463.1z"/>
		<path class="st0" d="M260.5,471.4c-1.2,0-2.2,0.1-2.9,0.2v-3.1c0.8,0.1,1.8,0.2,2.9,0.2h6.4v-0.2c0-0.6,0-1.1-0.1-1.5h1
			c1-0.6,1.8-1.2,2.8-2.2h-6.5c-1,0-1.6,0-2.4,0.1v-2.8c0.7,0.1,1.4,0.1,2.4,0.1h7.8c0.9,0,1.4,0,1.8-0.1l1.3,1.7
			c-0.4,0.4-0.4,0.4-0.9,0.8c-1.7,1.7-2.9,2.7-4.7,4l0,0h6.2c1.2,0,2.2-0.1,2.9-0.2v3.1c-0.7-0.1-1.7-0.2-2.9-0.2h-6.2v4.8
			c0,1-0.1,1.4-0.3,1.7c-0.4,0.7-1.2,0.9-3.3,0.9c-0.3,0-1.1,0-2.3-0.1c-0.3-1.5-0.4-1.9-0.8-2.9c1.1,0.2,2.2,0.3,2.9,0.3
			c1,0,1.2-0.1,1.2-0.6v-4.1h-6.3V471.4z M261.7,457.7c-0.5-1.2-0.9-1.8-1.8-3.1l2.4-0.8c0.8,1.2,1.4,2.2,2.2,4h2.5
			c-0.4-1.3-0.8-2.3-1.4-3.5l2.5-0.8c1,2.1,1.1,2.5,1.6,4.3h2c0.7-1.1,1.5-2.8,1.9-4.1l2.6,0.8c-0.5,1.2-1.2,2.5-1.8,3.3h1.1
			c1.6,0,2.1,0,2.9-0.1c-0.1,0.7-0.1,1.2-0.1,2.3v2.6c0,0.7,0,1.4,0.1,2.1h-2.6v-4.3h-15.4v4.3h-2.6c0.1-0.6,0.1-1.3,0.1-2.1v-2.5
			c0-1,0-1.6-0.1-2.3c1.1,0.1,1.2,0.1,2.8,0.1h1.1V457.7z"/>
		<path class="st0" d="M311.2,469.8c1.4,0,2.2-0.1,3-0.2v3.1c-0.9-0.1-1.6-0.2-3-0.2h-6.6v3.5c0,1.4,0,2.2,0.2,3h-3
			c0.1-0.9,0.2-1.7,0.2-3v-3.5h-6.2c-1.3,0-2.2,0.1-3,0.2v-3.1c0.8,0.1,1.6,0.2,3,0.2h6.2c0-1,0-1.6-0.1-2.3h2.8
			c-0.1,0.7-0.1,1-0.1,2.3H311.2z M301.9,455.4c0-0.7,0-1.4-0.1-2h2.9c-0.1,0.6-0.1,1.3-0.1,2v0.6h6.5c1.2,0,2-0.1,2.8-0.2v3.1
			c-0.7-0.1-1.6-0.2-2.7-0.2h-15.3c-2.1,0.1-2.1,0.1-2.8,0.2v-3.1c0.9,0.1,1.7,0.2,2.9,0.2h6L301.9,455.4L301.9,455.4z M300.5,459.8
			c-0.4,1.2-0.6,1.6-0.9,2.4c1,1.5,1.9,2.4,3.3,3.5c-0.7,0.8-1,1.3-1.7,2.4c-1.4-1.4-2-2.1-2.9-3.4c-1,1.7-1.9,2.8-3.5,4.6
			c-0.7-1.1-1.1-1.6-1.9-2.3c1.4-1.1,2.2-2,3-3.4c1-1.6,1.5-2.7,1.9-4.6L300.5,459.8z M309.4,459.9c-0.4,1.3-0.6,1.6-0.8,2.3
			c1.4,1.8,3.1,3,5.3,3.8c-0.6,0.9-1,1.7-1.4,2.8c-2.1-1.1-3.7-2.5-5.1-4.3c-0.6,1.2-1.1,1.9-2.2,3.2c-0.6-0.9-1-1.4-1.8-2.2
			c1.1-1.1,1.7-1.9,2.3-3.3c0.6-1.3,0.9-2.1,1.2-3.4L309.4,459.9z"/>
		<path class="st0" d="M321.4,464.6c-1.1,0-1.7,0-2.4,0.1v-2.6c0.7,0.1,1.3,0.1,2.4,0.1h2.9c-0.4-0.9-0.6-1.5-0.9-2h-2.6
			c-1.2,0-2.1,0.1-2.8,0.1v-2.8c0.7,0.1,1.5,0.2,2.7,0.2h0.8c-0.4-1-0.7-1.4-1.6-2.6l2.4-1c0.8,1.3,1.1,2,1.8,3.6h1.3v-2
			c0-0.8,0-1.6-0.1-2.2h2.6c0,0.5-0.1,1.1-0.1,2v2.1h1.7v-2.1c0-0.9,0-1.5-0.1-2h2.6c-0.1,0.5-0.1,1.3-0.1,2.2v2h1.5
			c0.8-1.4,1.3-2.3,1.7-3.7l2.4,1.1c-0.6,1.1-0.9,1.8-1.5,2.7h0.7c1.2,0,2-0.1,2.7-0.2v2.8c-0.7-0.1-1.7-0.1-2.8-0.1h-2.4
			c-0.4,1.1-0.5,1.4-0.9,2h2.7c1.2,0,1.8,0,2.4-0.1v2.6c-0.7-0.1-1.3-0.1-2.4-0.1h-6.2v1.3h4.9c1.1,0,1.8,0,2.4-0.1v2.5
			c-0.7-0.1-1.4-0.1-2.4-0.1h-4.9v1.4h6.6c1.3,0,2.2-0.1,2.9-0.2v2.8c-0.9-0.1-1.8-0.2-2.8-0.2h-4.8c0.8,0.8,1.9,1.5,3.2,2.2
			c1.5,0.7,2.7,1.1,4.9,1.6c-0.7,1.1-0.9,1.7-1.3,2.8c-4-1.3-6.7-3-8.8-5.5c0.1,1.1,0.1,1.3,0.1,2v1.4c0,1.2,0,2,0.2,2.8h-2.8
			c0.1-0.8,0.1-1.7,0.1-2.8V475c0-0.6,0-0.7,0.1-1.9c-1.1,1.3-2,2.1-3.4,3c-1.5,1-3,1.7-4.8,2.3c-0.4-1-0.8-1.8-1.4-2.7
			c3.5-0.9,5.8-2.1,7.7-3.9h-4.4c-1.1,0-2,0.1-2.9,0.2v-2.8c0.8,0.1,1.6,0.2,2.8,0.2h6.3V468h-4.7c-1,0-1.8,0-2.4,0.1v-2.5
			c0.7,0.1,1.3,0.1,2.4,0.1h4.7v-1.3h-5.9V464.6z M330.7,462.2c0.4-0.8,0.5-1.3,0.8-2H326c0.3,0.8,0.5,1.2,0.7,2H330.7z"/>
		<path class="st0" d="M350.1,466.2c0,1.8-1.3,3.3-2.8,3.3c-1.6,0-2.8-1.5-2.8-3.3s1.3-3.3,2.8-3.3
			C348.9,462.9,350.1,464.4,350.1,466.2z"/>
		<path class="st0" d="M360.9,467.8c0-1.4,0-2,0.1-3.3c-0.6,1.3-0.9,1.9-1.6,3c-0.4-1.4-0.7-2.3-1.1-3.2c2.2-2.8,4-7.4,4.5-10.9
			l2.7,0.8c-0.1,0.4-0.1,0.4-0.4,1.2c-0.5,1.8-1,3.2-1.8,5.1v15.2c0,1.4,0,2.3,0.1,3.3h-2.6c0.1-1.1,0.1-1.9,0.1-3.3L360.9,467.8
			L360.9,467.8z M380.5,458.3c-0.7-0.1-1.2-0.1-2.1-0.1c-0.9,1.9-1.8,3.2-2.9,4.4c1.6,1,3,1.4,5.6,1.9c-0.5,1-0.7,1.7-1,2.8
			c-3.1-0.9-4.9-1.7-6.5-3.1c-1.5,1.1-2.9,1.7-5.3,2.6c-0.3-1-0.6-1.6-1-2.4c2-0.5,3.1-1,4.5-1.9c-0.8-0.9-1.2-1.4-1.9-2.7
			c-0.6,0.9-1,1.3-1.9,2.2c-0.4-0.5-0.5-0.6-1.2-1.2V472c0,1.5,0,2.2,0.1,2.8h-2.6c0.1-0.8,0.1-1.4,0.1-2.9v-11.2
			c0-1.4,0-1.8-0.1-2.6h2.5c0,0.5-0.1,0.8-0.1,1.5c1.9-1.9,3.1-4,3.7-6.4l2.6,0.6c-0.4,0.9-0.5,1.2-0.8,1.9h5.5c1.3,0,1.9,0,2.7-0.2
			L380.5,458.3L380.5,458.3z M380.6,471.7c-0.3,0.3-0.6,0.5-0.9,0.9c-3.4,3.5-6.4,5.1-11.8,6.5c-0.4-1-0.6-1.5-1.2-2.5
			c3.7-0.7,6.5-1.8,9-3.5c1.4-1,2.3-1.9,3-3L380.6,471.7z M375.3,467c-0.2,0.2-0.2,0.2-0.9,0.7c-1.4,1.2-3.1,2-5.9,3
			c-0.3-0.9-0.4-1.1-1.2-2.2c3-0.7,5-1.7,6.2-3L375.3,467z M377.9,469.1c-3.2,3-5.2,4.1-9.3,5.4c-0.3-0.9-0.6-1.5-1.1-2.3
			c3.6-0.8,7.2-2.8,8.4-4.6L377.9,469.1z M371.4,458.2c0.7,1.3,1.3,2,2.2,3c1-1,1.6-1.8,2.2-3H371.4z"/>
		<path class="st0" d="M388.2,457.7c-1.3,0-2.2,0.1-3.2,0.2v-3.3c0.9,0.1,1.8,0.2,3.2,0.2h12.1c1.3,0,2-0.1,2.6-0.1l1.6,2.1
			c-0.4,0.5-0.5,0.6-0.9,1c-2.6,3-4.4,4.6-7.5,6.8v11.2c0,2-0.9,2.7-3.5,2.7c-0.9,0-1.2,0-3.3-0.2c-0.1-1.3-0.3-2-0.7-3.3
			c1.6,0.3,2.7,0.4,3.7,0.4c0.8,0,1.1-0.1,1.1-0.7v-10.3c0-1.1,0-2-0.1-2.8h2.1c1.9-1.2,3.1-2.2,4.8-4.1h-12V457.7z"/>
		<path class="st0" d="M411.7,459.7c-0.3,0.8-0.4,1.2-0.8,2.1c-0.9-0.6-1.3-0.9-2.2-1.4c1-1.9,1.6-3.7,1.9-5.5
			c0.1-0.7,0.1-0.8,0.1-1.1l2.4,0.5c-0.1,0.2-0.2,0.7-0.3,1.1c0,0.3-0.2,0.9-0.3,1.5h1.8v-0.8c0-1.3,0-1.9-0.1-2.7h2.7
			c-0.1,0.7-0.1,1.3-0.1,2.6v0.8h2c1.2,0,1.7,0,2.3-0.1v2.9c-0.7-0.1-1.3-0.1-2.3-0.1h-2v2.3h2.8c0.9,0,1.5,0,2.2-0.1v2.9
			c-0.6-0.1-1.1-0.1-2.3-0.1h-2.7v2.2h2.3c1,0,1.5,0,2.2-0.1c0,0.7-0.1,1.2-0.1,2.5v5.5c0,1.7-0.6,2.2-2.6,2.2c-0.2,0-0.4,0-1.1-0.1
			c0-1.1-0.1-1.7-0.4-2.6c0.4,0.1,1,0.1,1.3,0.1c0.4,0,0.6-0.1,0.6-0.5v-4.4h-2.1v6.5c0,1.5,0,2.2,0.1,3h-2.7c0.1-0.9,0.1-1.5,0.1-3
			v-6.5H412v4.9c0,1.2,0,2,0.1,2.7h-2.6c0.1-0.7,0.1-1.2,0.1-2.7v-5.1c0-1.1,0-1.8-0.1-2.6c0.7,0.1,1.3,0.1,2.3,0.1h2.4v-2.2h-3
			c-1.1,0-1.8,0-2.4,0.1v-3c0.6,0.1,1.2,0.1,2.1,0.1h3.3v-2.3h-2.5V459.7z M425.1,455.5c-0.1,0.7-0.1,1.5-0.1,2.9v11.1
			c0,1.7,0,2.2,0.1,2.9h-2.7c0.1-0.7,0.1-1.2,0.1-3v-11.1c0-1.4,0-2.2-0.1-2.9h2.7V455.5z M429.7,453.7c-0.1,0.8-0.2,1.6-0.2,3.3
			v18.5c0,1.5-0.2,2.2-0.8,2.6c-0.6,0.5-1.3,0.6-2.9,0.6c-0.1,0-0.9,0-2.2-0.1c-0.1-1.3-0.3-1.9-0.7-3c1.1,0.2,2.2,0.3,3.1,0.3
			s1.1-0.2,1.1-0.8v-18c0-1.7,0-2.5-0.1-3.4H429.7z"/>
		<path class="st0" d="M441.5,454.2c-0.3,0.7-0.3,0.9-0.5,1.5c-0.4,1.2-0.4,1.2-1.6,4.4v15.3c0,1.3,0,2.4,0.2,3.4h-2.8
			c0.1-1.1,0.2-2,0.2-3.4v-7.9c0-0.7,0-0.8,0.1-3.1c-0.8,1.3-1.4,2.2-2.3,3.2c-0.3-1.3-0.7-2.1-1.3-3.2c1.8-1.9,3.3-4.4,4.5-7.6
			c0.5-1.4,0.9-2.6,1-3.6L441.5,454.2z M445.3,460.1c-1,2.5-2.3,4.6-3.9,6.7c-0.6-1.1-0.9-1.6-1.7-2.6c1.8-2.2,3-4.3,4-7
			c0.6-1.7,0.9-3,1.1-4l2.7,0.9c-0.2,0.7-0.3,0.9-0.5,1.5c-0.4,1.2-0.4,1.2-0.6,1.9h6.4c1.2,0,1.9-0.1,2.6-0.2v3
			c-0.7-0.1-1.5-0.1-2.6-0.1h-4.5v3.5h3.9c1,0,1.6-0.1,2.3-0.2v3c-0.8-0.1-1.5-0.2-2.4-0.2h-3.8v3.5h3.9c1,0,1.7,0,2.4-0.2v3
			c-0.8-0.1-1.5-0.2-2.4-0.2h-3.9v3.2c0,1.7,0,2.5,0.2,3.3h-2.9c0.1-0.8,0.1-1.6,0.1-3.3V460h-0.4V460.1z"/>
		<path class="st0" d="M479.1,471.4c-0.6,0.6-0.7,0.7-1,1c-1.2,1.3-1.3,1.4-2,1.9c1.5,0.9,2.7,1.4,5.1,1.9c-0.8,1-1.1,1.6-1.5,2.8
			c-3.2-1.1-5.1-2.2-7.1-4.2v2.1c-1.9,0.5-4.2,1.1-8.4,1.9c-0.4,0.1-0.5,0.1-0.9,0.2l-0.4-3.2c0.2,0,0.3,0,0.4,0
			c0.5,0,1.3-0.1,2.4-0.2v-5.4h-2.4c-0.4,3.7-1.1,6.2-2.5,8.9c-0.7-1-1.2-1.6-2.1-2.5c0.9-1.7,1.4-3.1,1.8-5.3
			c0.5-2.7,0.7-7,0.7-12.7c0-2.5,0-3.2-0.1-4.4c0.8,0.1,1.7,0.1,3.1,0.1H477c1.3,0,2,0,2.7-0.1c0,0.7-0.1,1.4-0.1,2.5v2.2
			c0,1.1,0,1.7,0.1,2.4c-0.8-0.1-1.7-0.1-2.6-0.1h-1.4v1.9h1.4c1.4,0,1.8,0,2.3-0.1v2.8c-0.7-0.1-1.5-0.1-2.4-0.1h-1.3v2.1h2.1
			c1.3,0,2.1,0,2.7-0.1v2.8c-0.8-0.1-1.6-0.1-2.6-0.1h-1.1L479.1,471.4z M467.2,461.6v-0.3h-3.6c0,3-0.1,4.7-0.2,6.5h3.8v-2.1h-0.9
			c-0.9,0-1.5,0-2,0.1V463c0.5,0.1,1.1,0.1,2,0.1h0.9L467.2,461.6L467.2,461.6z M477.2,458.9V457h-13.5v1.9H477.2z M468.2,470.3v5
			c1.3-0.2,1.7-0.3,4-0.9c-1.2-1.4-1.7-2.3-2.4-4.1H468.2z M473.3,463.1v-1.9h-3.7v1.9H473.3z M473.3,467.7v-2.1h-3.7v2.1H473.3z
			 M472.4,470.3c0.5,1,0.9,1.7,1.8,2.6c0.9-0.8,1.8-1.7,2.3-2.6H472.4z"/>
	</g>
	<g>
		<g>
			<path class="st0" d="M82.5,136.9c0.9-2.5,3-5.1,6.2-7.9c2.8-2.4,4.7-4.2,5.5-5.2c1.3-1.6,1.9-3.4,1.9-5.4c0-1.6-0.4-2.9-1.1-3.9
				s-1.8-1.6-3.2-1.6c-1.9,0-3.1,0.8-3.8,2.5c-0.4,1-0.6,2.5-0.7,4.6h-6c0.1-3.2,0.6-5.7,1.4-7.7c1.6-3.7,4.6-5.6,8.8-5.6
				c3.3,0,6,1.1,7.9,3.3c2,2.2,2.9,5.1,2.9,8.7c0,2.8-0.7,5.2-2.1,7.4c-0.9,1.4-2.4,3-4.5,4.8l-2.5,2.1c-1.5,1.3-2.6,2.2-3.2,2.8
				s-1,1.3-1.4,2h13.7v6.5H81.1C81.1,141.5,81.6,139.1,82.5,136.9z"/>
			<path class="st0" d="M124.9,111.7c1.6,3.3,2.4,8.1,2.4,14.3c0,6.2-0.8,10.9-2.4,14.2s-4.4,5-8.4,5s-6.8-1.7-8.4-5
				s-2.4-8.1-2.4-14.2c0-6.2,0.8-10.9,2.4-14.3c1.6-3.3,4.4-5,8.4-5S123.3,108.3,124.9,111.7z M112.8,135.8c0.6,2.3,1.8,3.4,3.6,3.4
				s3-1.1,3.6-3.4c0.6-2.3,0.9-5.6,0.9-9.8c0-4.5-0.3-7.8-0.9-10s-1.8-3.2-3.6-3.2s-3,1.1-3.6,3.2c-0.6,2.2-0.9,5.5-0.9,10
				C112,130.2,112.3,133.5,112.8,135.8z"/>
			<path class="st0" d="M132,118.5v-5c1.9-0.1,3.3-0.3,4.1-0.5c1.2-0.3,2.2-1,3-2c0.5-0.7,0.9-1.6,1.2-2.7c0.2-0.7,0.2-1.2,0.2-1.5
				h5.1v37.3h-6.3v-25.7L132,118.5L132,118.5z"/>
			<path class="st0" d="M155.9,128.2c0.8-1.7,2-3,3.5-3.8c-1.5-1.2-2.5-2.5-3-3.9s-0.7-2.7-0.7-3.9c0-2.7,0.9-5,2.6-6.9
				c1.7-1.9,4.1-2.9,7.3-2.9c3.1,0,5.6,1,7.3,2.9s2.6,4.2,2.6,6.9c0,1.2-0.2,2.5-0.7,3.9s-1.4,2.6-3,3.6c1.5,1,2.7,2.4,3.5,4.1
				c0.8,1.7,1.2,3.6,1.2,5.7c0,3.1-1,5.8-2.9,8c-2,2.2-4.7,3.3-8.2,3.3s-6.2-1.1-8-3.3s-2.7-4.9-2.7-8
				C154.7,131.8,155.1,129.9,155.9,128.2z M162.3,137.7c0.8,1,1.9,1.5,3.3,1.5c1.4,0,2.5-0.5,3.3-1.5s1.2-2.4,1.2-4.3
				c0-1.9-0.4-3.4-1.2-4.3c-0.8-1-1.9-1.5-3.3-1.5c-1.4,0-2.5,0.5-3.3,1.5s-1.2,2.4-1.2,4.3C161.1,135.2,161.5,136.6,162.3,137.7z
				 M162.7,120.7c0.7,0.9,1.7,1.3,2.9,1.3c1.3,0,2.2-0.4,2.9-1.3s1-2,1-3.3c0-1.5-0.3-2.6-1-3.5c-0.7-0.8-1.7-1.2-2.9-1.2
				s-2.2,0.4-2.9,1.2c-0.7,0.8-1.1,2-1.1,3.5C161.6,118.7,162,119.8,162.7,120.7z"/>
		</g>
	</g>
</g>
</svg>
